<svg width="57" height="57" viewBox="0 0 57 57" fill="none" xmlns="http://www.w3.org/2000/svg">
<path d="M9.11891 28.4991C9.11891 17.7831 17.7829 9.11914 28.4989 9.11914C39.2149 9.11914 47.8789 17.7831 47.8789 28.4991C47.8789 39.2151 39.2149 47.8791 28.4989 47.8791C17.7829 47.8791 9.11891 39.2151 9.11891 28.4991ZM45.5989 28.4991C45.5989 19.0371 37.9609 11.3991 28.4989 11.3991C19.0369 11.3991 11.3989 19.0371 11.3989 28.4991C11.3989 37.9611 19.0369 45.5991 28.4989 45.5991C37.9609 45.5991 45.5989 37.9611 45.5989 28.4991Z" fill="#890C25"/>
<path d="M26.5608 37.9614L36.0228 28.4994L26.5608 19.0374L28.1568 17.4414L39.2148 28.4994L28.1568 39.5574L26.5608 37.9614Z" fill="#890C25"/>
<path d="M37.6211 27.3594L37.6211 29.6394L18.2411 29.6394L18.2411 27.3594L37.6211 27.3594Z" fill="#890C25"/>
</svg>
