<svg width="20" height="20" viewBox="0 0 20 20" fill="none" xmlns="http://www.w3.org/2000/svg">
<path d="M9.76773 0.324368C14.537 0.324368 18.4985 3.82437 19.1908 8.40129L12.537 8.40129V6.17052L9.76773 5.74745V8.40129H7.9985C7.22927 8.40129 6.4985 8.01668 6.4985 6.82437V5.63206H4.15234C4.15234 5.63206 3.96004 6.70898 3.96004 7.78591C3.96004 9.93975 5.30619 11.3628 7.6908 11.3628H9.76773V13.7859H12.537V11.3628L19.1908 11.3628C18.4985 15.9398 14.537 19.4013 9.76773 19.4013C4.4985 19.4013 0.229266 15.1321 0.229266 9.86283C0.229266 4.5936 4.4985 0.324368 9.76773 0.324368Z" fill="#737477"/>
</svg>
