<svg width="18" height="19" viewBox="0 0 18 19" fill="none" xmlns="http://www.w3.org/2000/svg">
<path d="M4.34465 9.40024C4.34465 6.97716 6.34465 4.97716 8.76773 4.97716C11.2293 4.97716 13.1908 6.97716 13.1908 9.40024C13.1908 11.8618 11.2293 13.8233 8.76773 13.8233C6.34465 13.8233 4.34465 11.8618 4.34465 9.40024ZM11.6523 9.40024C11.6523 7.82332 10.3831 6.55409 8.76773 6.55409C7.1908 6.55409 5.92157 7.82332 5.92157 9.40024C5.92157 11.0156 7.1908 12.2849 8.76773 12.2849C10.3831 12.2849 11.6523 10.9772 11.6523 9.40024ZM4.1908 3.78486C4.76773 3.78486 5.22927 4.24639 5.22927 4.82332C5.22927 5.40024 4.76773 5.86178 4.1908 5.86178C3.61388 5.86178 3.15234 5.40024 3.15234 4.82332C3.15234 4.24639 3.61388 3.78486 4.1908 3.78486ZM5.22927 0.861778C6.65234 0.784855 10.9216 0.784855 12.3447 0.861778C13.7293 0.938701 14.9216 1.24639 15.96 2.24639C16.96 3.24639 17.2677 4.47716 17.3447 5.86178C17.4216 7.28486 17.4216 11.5541 17.3447 12.9772C17.2677 14.3618 16.96 15.5541 15.96 16.5925C14.9216 17.5925 13.7293 17.9002 12.3447 17.9772C10.9216 18.0541 6.65234 18.0541 5.22927 17.9772C3.84465 17.9002 2.61388 17.5925 1.61388 16.5925C0.613882 15.5541 0.306189 14.3618 0.229266 12.9772C0.152343 11.5541 0.152343 7.28486 0.229266 5.86178C0.306189 4.47716 0.613882 3.24639 1.61388 2.24639C2.61388 1.24639 3.84465 0.938701 5.22927 0.861778ZM13.8447 2.70793C12.7293 2.24639 10.037 2.36178 8.76773 2.36178C7.53696 2.36178 4.84465 2.24639 3.6908 2.70793C2.96004 3.01562 2.34465 3.59255 2.07542 4.32332C1.61388 5.47716 1.72927 8.16947 1.72927 9.40024C1.72927 10.6695 1.61388 13.3618 2.07542 14.4772C2.38311 15.2464 2.96004 15.8233 3.6908 16.131C4.84465 16.5925 7.53696 16.4772 8.76773 16.4772C10.037 16.4772 12.7293 16.5925 13.8447 16.131C14.6139 15.8233 15.1908 15.2464 15.4985 14.4772C15.96 13.3618 15.8447 10.6695 15.8447 9.40024C15.8447 8.16947 15.96 5.47716 15.4985 4.32332C15.1908 3.59255 14.6139 2.97716 13.8447 2.70793Z" fill="#737477"/>
</svg>
