<svg width="18" height="18" viewBox="0 0 18 18" fill="none" xmlns="http://www.w3.org/2000/svg">
<path d="M0.152343 1.32422C0.152343 0.670372 0.729266 0.0934489 1.42157 0.0934489H16.1523C16.8447 0.0934489 17.3831 0.670372 17.3831 1.32422V16.1319C17.3831 16.7858 16.8447 17.3242 16.1523 17.3242H1.42157C0.729266 17.3242 0.152343 16.7858 0.152343 16.1319L0.152343 1.32422ZM14.9216 12.1319H6.72927V14.6704H14.9216V12.1319ZM5.57542 13.4011C5.57542 12.5934 4.92157 11.9396 4.11388 11.9396C3.30619 11.9396 2.61388 12.5934 2.61388 13.4011C2.61388 14.2473 3.30619 14.9011 4.11388 14.9011C4.92157 14.9011 5.57542 14.2473 5.57542 13.4011ZM14.9216 2.55499L10.4216 2.55499C8.22927 2.55499 6.4985 3.05499 6.4985 5.63191C6.4985 6.86268 7.1908 7.70883 7.84465 8.05499V8.09345H6.72927L6.72927 10.5165H14.9216V7.97806L10.8831 7.97806C9.80619 7.97806 8.76773 7.78576 8.76773 6.4396C8.76773 5.13191 9.9985 5.13191 10.9216 5.13191L14.9216 5.13191L14.9216 2.55499Z" fill="#737477"/>
</svg>
