<svg width="16" height="22" viewBox="0 0 16 22" fill="none" xmlns="http://www.w3.org/2000/svg">
<path d="M2.72927 0.515474C4.34465 0.0539355 7.80619 0.0539355 7.80619 0.0539355C7.80619 0.0539355 11.2293 0.0539355 12.8831 0.515474C13.8062 0.746243 14.4985 1.47701 14.7293 2.36163C15.1523 4.01547 15.1523 10.5539 15.1523 10.5539C15.1523 10.5539 15.1523 17.1309 14.7293 18.7847C14.4985 19.6693 13.8062 20.4001 12.8831 20.6309C11.2293 21.0924 7.80619 21.0924 7.80619 21.0924C7.80619 21.0924 4.34465 21.0924 2.72927 20.6309C1.80619 20.4001 1.07542 19.6693 0.844651 18.7847C0.383112 17.1309 0.383112 10.5539 0.383112 10.5539C0.383112 10.5539 0.383112 4.01547 0.844651 2.36163C1.07542 1.47701 1.80619 0.746243 2.72927 0.515474ZM10.9216 12.7078L7.80619 7.24624L4.6908 12.7078H10.9216Z" fill="#737477"/>
</svg>
